<svg width="63" height="62" viewBox="0 0 63 62" fill="none" xmlns="http://www.w3.org/2000/svg">
<path d="M31.5 0.25C27.3962 0.25 23.3326 1.05831 19.5411 2.62876C15.7497 4.19922 12.3047 6.50108 9.40291 9.40291C3.5424 15.2634 0.25 23.212 0.25 31.5C0.25 45.3125 9.21875 57.0312 21.625 61.1875C23.1875 61.4375 23.6875 60.4687 23.6875 59.625V54.3437C15.0312 56.2187 13.1875 50.1562 13.1875 50.1562C11.75 46.5312 9.71875 45.5625 9.71875 45.5625C6.875 43.625 9.9375 43.6875 9.9375 43.6875C13.0625 43.9062 14.7188 46.9062 14.7188 46.9062C17.4375 51.6562 22.0312 50.25 23.8125 49.5C24.0938 47.4687 24.9062 46.0937 25.7812 45.3125C18.8438 44.5312 11.5625 41.8437 11.5625 29.9375C11.5625 26.4687 12.75 23.6875 14.7812 21.4687C14.4688 20.6875 13.375 17.4375 15.0938 13.2187C15.0938 13.2187 17.7188 12.375 23.6875 16.4062C26.1562 15.7187 28.8438 15.375 31.5 15.375C34.1562 15.375 36.8438 15.7187 39.3125 16.4062C45.2812 12.375 47.9062 13.2187 47.9062 13.2187C49.625 17.4375 48.5312 20.6875 48.2188 21.4687C50.25 23.6875 51.4375 26.4687 51.4375 29.9375C51.4375 41.875 44.125 44.5 37.1562 45.2812C38.2812 46.25 39.3125 48.1562 39.3125 51.0625V59.625C39.3125 60.4687 39.8125 61.4687 41.4062 61.1875C53.8125 57 62.75 45.3125 62.75 31.5C62.75 27.3962 61.9417 23.3326 60.3712 19.5411C58.8008 15.7497 56.4989 12.3047 53.5971 9.40291C50.6953 6.50108 47.2503 4.19922 43.4589 2.62876C39.6674 1.05831 35.6038 0.25 31.5 0.25Z" fill="#4B4B4B"/>
</svg>
