<svg width="64" height="63" viewBox="0 0 64 63" fill="none" xmlns="http://www.w3.org/2000/svg">
<path d="M28.6494 47.125H34.8994V28.375H28.6494V47.125ZM31.7744 22.125C32.6598 22.125 33.4025 21.825 34.0025 21.225C34.6025 20.625 34.9015 19.8833 34.8994 19C34.8973 18.1167 34.5973 17.375 33.9994 16.775C33.4015 16.175 32.6598 15.875 31.7744 15.875C30.889 15.875 30.1473 16.175 29.5494 16.775C28.9515 17.375 28.6515 18.1167 28.6494 19C28.6473 19.8833 28.9473 20.626 29.5494 21.2281C30.1515 21.8302 30.8932 22.1292 31.7744 22.125ZM31.7744 62.75C27.4515 62.75 23.389 61.9292 19.5869 60.2875C15.7848 58.6458 12.4775 56.4198 9.66504 53.6094C6.85254 50.799 4.6265 47.4917 2.98692 43.6875C1.34733 39.8833 0.526501 35.8208 0.524418 31.5C0.522335 27.1792 1.34317 23.1167 2.98692 19.3125C4.63067 15.5083 6.85671 12.201 9.66504 9.39063C12.4734 6.58021 15.7807 4.35417 19.5869 2.7125C23.3932 1.07083 27.4557 0.25 31.7744 0.25C36.0932 0.25 40.1557 1.07083 43.9619 2.7125C47.7682 4.35417 51.0755 6.58021 53.8838 9.39063C56.6921 12.201 58.9192 15.5083 60.565 19.3125C62.2109 23.1167 63.0307 27.1792 63.0244 31.5C63.0182 35.8208 62.1973 39.8833 60.5619 43.6875C58.9265 47.4917 56.7005 50.799 53.8838 53.6094C51.0671 56.4198 47.7598 58.6469 43.9619 60.2906C40.164 61.9344 36.1015 62.7542 31.7744 62.75Z" fill="#4B4B4B"/>
</svg>
