<svg width="62" height="62" viewBox="0 0 62 62" fill="none" xmlns="http://www.w3.org/2000/svg">
<path d="M34.0037 0C37.4724 0.00924972 39.2329 0.0277492 40.7529 0.0709145L41.3511 0.0924971C42.0417 0.117163 42.7231 0.147995 43.5463 0.184994C46.8269 0.339156 49.0653 0.857141 51.0294 1.6187C53.0643 2.40184 54.7786 3.46248 56.4929 5.17367C58.0613 6.71447 59.2745 8.57903 60.0478 10.6372C60.8094 12.6012 61.3274 14.8396 61.4815 18.1233C61.5185 18.9434 61.5494 19.6248 61.574 20.3185L61.5925 20.9167C61.6388 22.4336 61.6573 24.1942 61.6634 27.6628L61.6665 29.9629V34.002C61.674 36.2509 61.6504 38.4998 61.5956 40.7481L61.5771 41.3462C61.5524 42.04 61.5216 42.7214 61.4846 43.5415C61.3305 46.8251 60.8063 49.0605 60.0478 51.0276C59.2745 53.0857 58.0613 54.9503 56.4929 56.4911C54.9521 58.0595 53.0875 59.2727 51.0294 60.0461C49.0653 60.8076 46.8269 61.3256 43.5463 61.4798L41.3511 61.5723L40.7529 61.5908C39.2329 61.6339 37.4724 61.6555 34.0037 61.6617L31.7036 61.6648H27.6677C25.4177 61.6727 23.1677 61.6491 20.9184 61.5939L20.3203 61.5754C19.5884 61.5476 18.8566 61.5158 18.125 61.4798C14.8445 61.3256 12.606 60.8076 10.6389 60.0461C8.58188 59.2724 6.71841 58.0592 5.17851 56.4911C3.60897 54.9506 2.39468 53.086 1.62045 51.0276C0.858894 49.0636 0.34091 46.8251 0.186748 43.5415L0.0942508 41.3462L0.078835 40.7481C0.0219987 38.4998 -0.00369771 36.2509 0.00175374 34.002V27.6628C-0.00678034 25.4139 0.0158325 23.165 0.0695852 20.9167L0.0911678 20.3185C0.115834 19.6248 0.146666 18.9434 0.183665 18.1233C0.337827 14.8396 0.855811 12.6043 1.61737 10.6372C2.3934 8.57818 3.60983 6.71356 5.18159 5.17367C6.7206 3.606 8.58299 2.39282 10.6389 1.6187C12.606 0.857141 14.8414 0.339156 18.125 0.184994C18.9452 0.147995 19.6297 0.117163 20.3203 0.0924971L20.9184 0.0739975C23.1667 0.0192169 25.4156 -0.00442351 27.6646 0.00308302L34.0037 0ZM30.8341 15.4162C26.7455 15.4162 22.8243 17.0404 19.9332 19.9315C17.0421 22.8226 15.4179 26.7438 15.4179 30.8324C15.4179 34.921 17.0421 38.8422 19.9332 41.7333C22.8243 44.6244 26.7455 46.2486 30.8341 46.2486C34.9228 46.2486 38.8439 44.6244 41.735 41.7333C44.6261 38.8422 46.2503 34.921 46.2503 30.8324C46.2503 26.7438 44.6261 22.8226 41.735 19.9315C38.8439 17.0404 34.9228 15.4162 30.8341 15.4162ZM30.8341 21.5827C32.0488 21.5825 33.2517 21.8215 34.374 22.2862C35.4963 22.7508 36.5161 23.432 37.3751 24.2908C38.2342 25.1495 38.9157 26.1691 39.3807 27.2913C39.8457 28.4134 40.0852 29.6162 40.0854 30.8308C40.0856 32.0455 39.8465 33.2484 39.3819 34.3707C38.9172 35.493 38.2361 36.5128 37.3773 37.3718C36.5185 38.2309 35.499 38.9124 34.3768 39.3774C33.2547 39.8424 32.0519 40.0819 30.8372 40.0821C28.384 40.0821 26.0313 39.1076 24.2967 37.3729C22.562 35.6383 21.5875 33.2856 21.5875 30.8324C21.5875 28.3792 22.562 26.0265 24.2967 24.2918C26.0313 22.5572 28.384 21.5827 30.8372 21.5827M47.0242 10.7913C46.0021 10.7913 45.0218 11.1974 44.299 11.9202C43.5762 12.6429 43.1702 13.6232 43.1702 14.6454C43.1702 15.6675 43.5762 16.6478 44.299 17.3706C45.0218 18.0934 46.0021 18.4994 47.0242 18.4994C48.0464 18.4994 49.0267 18.0934 49.7495 17.3706C50.4722 16.6478 50.8783 15.6675 50.8783 14.6454C50.8783 13.6232 50.4722 12.6429 49.7495 11.9202C49.0267 11.1974 48.0464 10.7913 47.0242 10.7913Z" fill="#4B4B4B"/>
</svg>
