<svg width="57" height="57" viewBox="0 0 57 57" fill="none" xmlns="http://www.w3.org/2000/svg">
<path d="M50.0122 0.375C51.6698 0.375 53.2595 1.03348 54.4316 2.20558C55.6037 3.37768 56.2622 4.9674 56.2622 6.625V50.375C56.2622 52.0326 55.6037 53.6223 54.4316 54.7944C53.2595 55.9665 51.6698 56.625 50.0122 56.625H6.26221C4.6046 56.625 3.01489 55.9665 1.84279 54.7944C0.670687 53.6223 0.012207 52.0326 0.012207 50.375V6.625C0.012207 4.9674 0.670687 3.37768 1.84279 2.20558C3.01489 1.03348 4.6046 0.375 6.26221 0.375H50.0122ZM48.4497 48.8125V32.25C48.4497 29.5481 47.3764 26.9569 45.4659 25.0463C43.5553 23.1358 40.9641 22.0625 38.2622 22.0625C35.606 22.0625 32.5122 23.6875 31.0122 26.125V22.6562H22.2935V48.8125H31.0122V33.4062C31.0122 31 32.9497 29.0312 35.356 29.0312C36.5163 29.0312 37.6291 29.4922 38.4496 30.3127C39.27 31.1331 39.731 32.2459 39.731 33.4062V48.8125H48.4497ZM12.1372 17.75C13.5296 17.75 14.865 17.1969 15.8495 16.2123C16.8341 15.2277 17.3872 13.8924 17.3872 12.5C17.3872 9.59375 15.0435 7.21875 12.1372 7.21875C10.7365 7.21875 9.39323 7.77517 8.4028 8.76559C7.41237 9.75602 6.85596 11.0993 6.85596 12.5C6.85596 15.4062 9.23096 17.75 12.1372 17.75ZM16.481 48.8125V22.6562H7.82471V48.8125H16.481Z" fill="#4B4B4B"/>
</svg>
